<svg xmlns="http://www.w3.org/2000/svg" xmlns:xlink="http://www.w3.org/1999/xlink" width="1024" zoomAndPan="magnify" viewBox="0 0 768 767.999994" height="1024" preserveAspectRatio="xMidYMid meet" version="1.0"><defs><clipPath id="58673e4483"><path d="M 76.800781 175 L 693.300781 175 L 693.300781 593 L 76.800781 593 Z M 76.800781 175 " clip-rule="nonzero"/></clipPath></defs><rect x="-76.8" width="921.6" fill="#ffffff" y="-76.799999" height="921.599993" fill-opacity="1"/><rect x="-76.8" width="921.6" fill="#ffffff" y="-76.799999" height="921.599993" fill-opacity="1"/><rect x="-76.8" width="921.6" fill="#ffffff" y="-76.799999" height="921.599993" fill-opacity="1"/><g clip-path="url(#58673e4483)"><path fill="#ffffff" d="M 648.019531 338.675781 L 231.976562 338.675781 C 231.976562 338.675781 319.625 251.578125 321.9375 248.597656 C 327.953125 240.882812 331.5625 231.207031 331.5625 220.671875 C 331.5625 209.03125 327.171875 198.453125 319.992188 190.386719 L 316.308594 186.695312 C 308.261719 179.511719 297.679688 175.101562 286.050781 175.101562 C 274.097656 175.101562 263.238281 179.777344 255.117188 187.332031 C 255.117188 187.332031 87.25 355.097656 86.394531 356.203125 C 80.453125 363.902344 76.886719 373.507812 76.886719 383.996094 C 76.886719 394.457031 80.453125 404.074219 86.378906 411.761719 C 88.78125 414.875 257.207031 582.742188 257.207031 582.742188 C 265.019531 589.085938 274.96875 592.890625 285.816406 592.890625 C 310.945312 592.890625 331.328125 572.503906 331.328125 547.351562 C 331.328125 536.316406 327.40625 526.195312 320.890625 518.316406 L 231.976562 429.316406 L 648.019531 429.316406 C 673.027344 429.316406 693.292969 409.015625 693.292969 383.996094 C 693.292969 358.960938 673.027344 338.675781 648.019531 338.675781 " fill-opacity="1" fill-rule="nonzero"/></g></svg>